# This file uses centimeters as units for non-parametric coordinates.

mtllib pillar_2.mtl
g default
v -0.200030 0.005518 0.500000
v 0.200030 0.005518 0.500000
v 0.200030 0.355140 0.500000
v -0.200030 0.355140 0.500000
v -0.200030 0.355140 -0.500000
v 0.200030 0.355140 -0.500000
v 0.200030 0.005518 -0.500000
v -0.200030 0.005518 -0.500000
v 0.500000 0.005518 0.200030
v 0.500000 0.005518 -0.200030
v 0.500000 0.355140 -0.200030
v 0.500000 0.355140 0.200030
v -0.500000 0.005518 -0.200030
v -0.500000 0.005518 0.200030
v -0.500000 0.355140 0.200030
v -0.500000 0.355140 -0.200030
vt 0.694135 0.113223
vt 0.694135 0.020083
vt 0.800712 0.020083
vt 0.800712 0.113223
vt 0.361532 0.020083
vt 0.361532 0.113223
vt 0.254955 0.113223
vt 0.254955 0.020083
vt 0.035365 0.113223
vt 0.913725 0.020083
vt 0.141942 0.020083
vt 0.141942 0.113223
vt 0.474545 0.113223
vt 0.474545 0.020083
vt 0.581122 0.020083
vt 0.581122 0.113223
vt 0.913725 0.113223
vt 0.035365 0.020083
vn 0.000000 0.000000 1.000000
vn 0.000000 0.000000 1.000000
vn 0.000000 0.000000 1.000000
vn 0.000000 0.000000 1.000000
vn 0.000000 0.000000 -1.000000
vn 0.000000 0.000000 -1.000000
vn 0.000000 0.000000 -1.000000
vn 0.000000 0.000000 -1.000000
vn 1.000000 0.000000 0.000000
vn 1.000000 0.000000 0.000000
vn 1.000000 0.000000 0.000000
vn 1.000000 0.000000 0.000000
vn -1.000000 0.000000 0.000000
vn -1.000000 0.000000 0.000000
vn -1.000000 0.000000 0.000000
vn -1.000000 0.000000 0.000000
vn -0.707107 0.000000 0.707107
vn -0.707107 0.000000 0.707107
vn -0.707107 0.000000 0.707107
vn -0.707107 0.000000 0.707107
vn 0.707107 0.000000 0.707107
vn 0.707107 0.000000 0.707107
vn 0.707107 0.000000 0.707107
vn 0.707107 0.000000 0.707107
vn -0.707107 0.000000 -0.707107
vn -0.707107 0.000000 -0.707107
vn -0.707107 0.000000 -0.707107
vn -0.707107 0.000000 -0.707107
vn 0.707107 0.000000 -0.707107
vn 0.707107 0.000000 -0.707107
vn 0.707107 0.000000 -0.707107
vn 0.707107 0.000000 -0.707107
s off
g polySurface1 pasted__pasted__pCube1 pasted__group group1
usemtl initialShadingGroup
f 4/1/1 1/2/2 2/3/3 3/4/4
f 8/5/5 5/6/6 6/7/7 7/8/8
f 12/9/9 9/18/10 10/11/11 11/12/12
f 16/13/13 13/14/14 14/15/15 15/16/16
f 14/15/17 1/2/18 4/1/19 15/16/20
f 2/3/21 9/10/22 12/17/23 3/4/24
f 16/13/25 5/6/26 8/5/27 13/14/28
f 6/7/29 11/12/30 10/11/31 7/8/32
g default
v -0.500000 0.355140 0.200030
v -0.500000 0.355140 -0.200030
v -0.200030 0.355140 0.500000
v 0.200030 0.355140 0.500000
v 0.500000 0.355140 0.200030
v 0.500000 0.355140 -0.200030
v -0.200030 0.355140 -0.500000
v 0.200030 0.355140 -0.500000
v -0.140027 0.500000 0.355140
v -0.355140 0.500000 0.140027
v -0.355140 0.500000 -0.140027
v -0.140027 0.500000 -0.355140
v 0.140027 0.500000 0.355140
v 0.355140 0.500000 0.140027
v 0.355140 0.500000 -0.140027
v 0.140027 0.500000 -0.355140
vt 0.600000 0.175186
vt 0.584441 0.120730
vt 0.697243 0.120730
vt 0.713455 0.174707
vt 0.583159 0.119848
vt 0.567485 0.174707
vt 0.493034 0.174707
vt 0.477360 0.119848
vt 0.477394 0.121134
vt 0.461677 0.176143
vt 0.383094 0.176143
vt 0.362465 0.122615
vt 0.803580 0.119848
vt 0.820996 0.175462
vt 0.919226 0.120454
vt 0.899580 0.175462
vt 0.050522 0.175387
vt 0.034848 0.120529
vt 0.140647 0.120529
vt 0.124973 0.175387
vt 0.158477 0.175866
vt 0.142919 0.121411
vt 0.255720 0.121411
vt 0.274002 0.176390
vt 0.348540 0.177944
vt 0.363448 0.121134
vt 0.256595 0.122056
vt 0.240161 0.175866
vt 0.805279 0.120454
vt 0.787906 0.174707
vt 0.697781 0.119848
vt 0.681684 0.175186
vn -0.500000 0.707107 0.500000
vn -0.500000 0.707107 0.500000
vn -0.500000 0.707107 0.500000
vn -0.500000 0.707107 0.500000
vn -0.707107 0.707107 -0.000000
vn -0.707107 0.707107 -0.000000
vn -0.707107 0.707107 -0.000000
vn -0.707107 0.707107 -0.000000
vn -0.500000 0.707107 -0.500000
vn -0.500000 0.707107 -0.500000
vn -0.500000 0.707107 -0.500000
vn -0.500000 0.707107 -0.500000
vn 0.000000 0.707107 0.707107
vn 0.000000 0.707107 0.707107
vn 0.000000 0.707107 0.707107
vn 0.000000 0.707107 0.707107
vn 0.500000 0.707107 0.500000
vn 0.500000 0.707107 0.500000
vn 0.500000 0.707107 0.500000
vn 0.500000 0.707107 0.500000
vn 0.707107 0.707107 0.000000
vn 0.707107 0.707107 0.000000
vn 0.707107 0.707107 0.000000
vn 0.707107 0.707107 0.000000
vn 0.500000 0.707107 -0.500000
vn 0.500000 0.707107 -0.500000
vn 0.500000 0.707107 -0.500000
vn 0.500000 0.707107 -0.500000
vn 0.000000 0.707107 -0.707107
vn 0.000000 0.707107 -0.707107
vn 0.000000 0.707107 -0.707107
vn 0.000000 0.707107 -0.707107
s off
g pasted__pasted__pCube1 pasted__group group1 polySurface3 polySurface2
usemtl initialShadingGroup
f 26/19/33 17/20/34 19/21/35 25/50/36
f 17/23/37 26/24/38 27/25/39 18/26/40
f 18/27/41 27/28/42 28/29/43 23/44/44
f 25/22/45 19/49/46 20/31/47 29/48/48
f 29/32/49 20/47/50 21/33/51 30/34/52
f 30/35/53 21/36/54 22/37/55 31/38/56
f 31/39/57 22/40/58 24/41/59 32/46/60
f 23/30/61 28/43/62 32/42/63 24/45/64
g default
v -0.355140 0.500000 0.140027
v -0.355140 0.500000 -0.140027
v -0.140027 0.500000 0.355140
v 0.140027 0.500000 0.355140
v 0.355140 0.500000 0.140027
v 0.355140 0.500000 -0.140027
v -0.140027 0.500000 -0.355140
v 0.140027 0.500000 -0.355140
v -0.140027 1.450158 0.355140
v -0.247594 1.634490 0.247573
v -0.312028 1.682047 0.183139
v -0.355140 1.711096 0.140027
v 0.140027 1.450158 0.355140
v 0.355140 1.530900 0.140027
v 0.355140 1.490319 -0.140027
v 0.140027 1.756873 -0.355140
v 0.168072 1.692861 -0.301737
v 0.222665 1.545281 -0.197784
v -0.140027 1.756898 -0.355140
v -0.355140 1.701903 -0.140027
vt 0.455921 0.197379
vt 0.536481 0.197379
vt 0.536481 0.452872
vt 0.495590 0.501449
vt 0.471450 0.513929
vt 0.455921 0.521546
vt 0.610520 0.197379
vt 0.610520 0.453158
vt 0.690906 0.197379
vt 0.070864 0.469870
vt 0.144996 0.197379
vt 0.144996 0.460630
vt 0.227393 0.197379
vt 0.227393 0.532765
vt 0.210869 0.515780
vt 0.179978 0.476644
vt 0.301432 0.197379
vt 0.301432 0.533058
vt 0.381887 0.197379
vt 0.381887 0.518830
vt 0.070864 0.197379
vt 0.690906 0.474815
vn -0.707107 -0.000000 0.707107
vn -0.707107 -0.000000 0.707107
vn -0.707107 -0.000000 0.707107
vn -0.707107 -0.000000 0.707107
vn -0.707107 -0.000000 0.707107
vn -0.707107 -0.000000 0.707107
vn 0.000000 0.000000 1.000000
vn 0.000000 0.000000 1.000000
vn 0.000000 0.000000 1.000000
vn 0.000000 0.000000 1.000000
vn 0.707107 0.000000 0.707107
vn 0.707107 0.000000 0.707107
vn 0.707107 0.000000 0.707107
vn 0.707107 0.000000 0.707107
vn 1.000000 0.000000 0.000000
vn 1.000000 0.000000 0.000000
vn 1.000000 0.000000 0.000000
vn 1.000000 0.000000 0.000000
vn 0.722119 0.024127 -0.691348
vn 0.722119 0.024127 -0.691348
vn 0.722119 0.024127 -0.691348
vn 0.722119 0.024127 -0.691348
vn 0.722119 0.024127 -0.691348
vn 0.722119 0.024127 -0.691348
vn 0.000000 0.000000 -1.000000
vn 0.000000 0.000000 -1.000000
vn 0.000000 0.000000 -1.000000
vn 0.000000 0.000000 -1.000000
vn -0.707107 0.000000 -0.707107
vn -0.707107 0.000000 -0.707107
vn -0.707107 0.000000 -0.707107
vn -0.707107 0.000000 -0.707107
vn -1.000000 0.000000 -0.000000
vn -1.000000 0.000000 -0.000000
vn -1.000000 0.000000 -0.000000
vn -1.000000 0.000000 -0.000000
s off
g pasted__pasted__pCube1 pasted__group group1 polySurface2 polySurface5 polySurface4
usemtl initialShadingGroup
f 33/51/65 35/52/66 41/53/67 42/54/68 43/55/69 44/56/70
f 35/52/71 36/57/72 45/58/73 41/53/74
f 36/57/75 37/59/76 46/72/77 45/58/78
f 37/71/79 38/61/80 47/62/81 46/60/82
f 38/61/83 40/63/84 48/64/85 49/65/86 50/66/87 47/62/88
f 40/63/89 39/67/90 51/68/91 48/64/92
f 39/67/93 34/69/94 52/70/95 51/68/96
f 34/69/97 33/51/98 44/56/99 52/70/100
g default
v -0.500000 0.005518 0.200030
v -0.200030 0.005518 0.500000
v 0.500000 0.005518 0.200030
v 0.200030 0.005518 0.500000
v -0.500000 0.005518 -0.200030
v -0.200030 0.005518 -0.500000
v 0.500000 0.005518 -0.200030
v 0.200030 0.005518 -0.500000
v -0.140027 1.450158 0.355140
v 0.140027 1.450158 0.355140
v 0.355140 1.530900 0.140027
v 0.355140 1.490319 -0.140027
v 0.222665 1.545281 -0.197784
v -0.095289 1.588626 -0.247836
v -0.248821 1.595091 -0.106322
v -0.247594 1.634490 0.247573
v 0.168072 1.692861 -0.301737
v 0.140027 1.756873 -0.355140
v -0.117660 1.771569 -0.301493
v -0.140027 1.756898 -0.355140
v -0.302142 1.730388 -0.123226
v -0.355140 1.701903 -0.140027
v -0.355140 1.711096 0.140027
v -0.312028 1.682047 0.183139
vt 0.726658 0.270939
vt 0.993060 0.270939
vt 0.993060 0.377516
vt 0.913147 0.457428
vt 0.806571 0.457428
vt 0.726658 0.377516
vt 0.806571 0.191026
vt 0.913147 0.191026
vt 0.500533 0.549698
vt 0.532346 0.517885
vt 0.615171 0.517885
vt 0.678791 0.581504
vt 0.678791 0.664330
vt 0.615171 0.727949
vt 0.481477 0.568754
vt 0.639611 0.703509
vt 0.623466 0.719655
vt 0.538961 0.721294
vt 0.545577 0.714638
vt 0.484401 0.657529
vt 0.500171 0.650687
vt 0.532346 0.727949
vt 0.468727 0.581504
vt 0.468727 0.664330
vn -0.000000 -1.000000 0.000000
vn -0.000000 -1.000000 0.000000
vn -0.000000 -1.000000 0.000000
vn -0.000000 -1.000000 0.000000
vn -0.000000 -1.000000 0.000000
vn -0.000000 -1.000000 0.000000
vn -0.000000 -1.000000 0.000000
vn -0.000000 -1.000000 0.000000
vn 0.224944 0.973298 -0.045733
vn 0.223670 0.968140 0.112587
vn 0.162544 0.985450 0.049667
vn 0.155396 0.986542 -0.050862
vn 0.155396 0.986542 -0.050862
vn 0.155396 0.986542 -0.050862
vn 0.166348 0.734031 0.658428
vn 0.166348 0.734031 0.658428
vn 0.128497 0.922267 0.364570
vn 0.128497 0.922267 0.364570
vn -0.133757 0.984945 0.109507
vn -0.128645 0.985023 0.114806
vn -0.202632 0.978343 -0.042248
vn -0.234225 0.970133 -0.063090
vn -0.035276 0.997197 0.065976
vn -0.035276 0.997198 0.065976
vn 0.013151 0.432877 0.901357
vn 0.013151 0.432877 0.901357
vn 0.013151 0.432877 0.901357
vn 0.013151 0.432877 0.901357
vn 0.636902 0.308173 0.706672
vn 0.636902 0.308173 0.706672
vn 0.636902 0.308173 0.706672
vn 0.636902 0.308173 0.706672
vn 0.836862 0.547106 0.018385
vn 0.836862 0.547106 0.018385
s off
g pasted__pasted__pCube1 pasted__group group1 polySurface2 polySurface4 polySurface6
usemtl initialShadingGroup
f 57/73/101 58/79/102 60/80/103 59/74/104 55/75/105 56/76/106 54/77/107 53/78/108
s 1
f 67/93/109 68/81/110 63/84/111 64/85/112 65/88/113 66/91/114
f 63/84/111 68/81/110 61/82/115 62/83/116
s 2
f 69/89/117 70/86/118 72/94/119 71/90/120
f 71/90/120 72/94/119 74/96/121 73/92/122
f 73/92/122 74/96/121 75/95/123 76/87/124
s off
f 65/88/125 69/89/126 71/90/127 66/91/128
f 66/91/129 71/90/130 73/92/131 67/93/132
s 1
f 67/93/109 73/92/133 76/87/134 68/81/110
